<svg width="20" height="20" viewBox="0 0 20 20" fill="none" xmlns="http://www.w3.org/2000/svg">
<g clip-path="url(#clip0)">
<path d="M18.2142 17.8567C18.6637 17.8567 19.0533 17.7082 19.3844 17.4151L13.7181 11.7486C13.5822 11.8459 13.4504 11.9406 13.3259 12.0306C12.9019 12.343 12.5577 12.5868 12.2934 12.7615C12.0292 12.9366 11.6776 13.1151 11.2388 13.2973C10.7996 13.4797 10.3905 13.5707 10.011 13.5707H9.99988H9.98877C9.60921 13.5707 9.20009 13.4798 8.76098 13.2973C8.32187 13.1151 7.9703 12.9366 7.70632 12.7615C7.44208 12.5868 7.09811 12.3431 6.67385 12.0306C6.55562 11.944 6.4245 11.8489 6.28274 11.7471L0.615326 17.4151C0.946448 17.7082 1.33625 17.8567 1.78578 17.8567H18.2142Z" fill="#E0E0E0"/>
<path d="M1.12735 8.18058C0.703347 7.8979 0.327345 7.57415 0 7.20947V15.8306L4.99427 10.8364C3.99513 10.1388 2.7078 9.25459 1.12735 8.18058Z" fill="#E0E0E0"/>
<path d="M18.8839 8.18058C17.3638 9.20949 16.0718 10.0953 15.0078 10.8384L20 15.8309V7.20947C19.6799 7.56681 19.3079 7.89034 18.8839 8.18058Z" fill="#E0E0E0"/>
<path d="M18.2142 2.14258H1.78582C1.21269 2.14258 0.772052 2.33612 0.46337 2.72279C0.154435 3.10965 0.000221252 3.59346 0.000221252 4.17368C0.000221252 4.64235 0.204871 5.15016 0.613989 5.69726C1.02311 6.24414 1.45844 6.6737 1.91978 6.98616C2.17268 7.16485 2.93536 7.69506 4.20782 8.57662C4.89471 9.05263 5.49207 9.46752 6.0054 9.82555C6.44295 10.1304 6.8203 10.3944 7.13185 10.6135C7.16761 10.6386 7.22386 10.6789 7.29851 10.7322C7.37894 10.79 7.48072 10.8633 7.60629 10.954C7.84808 11.1289 8.04896 11.2702 8.20894 11.3782C8.36871 11.4862 8.56229 11.6069 8.78938 11.7409C9.01629 11.8747 9.2303 11.9753 9.43118 12.0422C9.63209 12.1091 9.81807 12.1427 9.98917 12.1427H10.0003H10.0114C10.1825 12.1427 10.3685 12.1091 10.5694 12.0422C10.7703 11.9753 10.9841 11.8749 11.2112 11.7409C11.4381 11.6069 11.6314 11.486 11.7917 11.3782C11.9516 11.2702 12.1525 11.1289 12.3944 10.954C12.5197 10.8633 12.6214 10.79 12.7019 10.7324C12.7766 10.6788 12.8328 10.6388 12.8688 10.6135C13.1115 10.4447 13.4897 10.1817 13.9982 9.82863C14.9235 9.18574 16.2861 8.23951 18.092 6.98616C18.6351 6.60682 19.0888 6.14904 19.4535 5.61349C19.8175 5.07793 20 4.51617 20 3.92836C20 3.43725 19.8231 3.01702 19.4699 2.66702C19.1164 2.31745 18.6978 2.14258 18.2142 2.14258Z" fill="#E0E0E0"/>
</g>
<defs>
<clipPath id="clip0">
<rect width="20" height="20" fill="white"/>
</clipPath>
</defs>
</svg>
