<svg width="20" height="20" viewBox="0 0 20 20" fill="none" xmlns="http://www.w3.org/2000/svg">
<path d="M18.2941 14.0225C18.0104 13.8667 17.6542 13.9703 17.4984 14.2539C17.3426 14.5375 17.4462 14.8938 17.7298 15.0496C18.4278 15.433 18.8281 15.8581 18.8281 16.2158C18.8281 16.6533 18.2082 17.3315 16.4682 17.9226C14.7493 18.5067 12.4521 18.8283 10 18.8283C7.54785 18.8283 5.2507 18.5067 3.53176 17.9226C1.7918 17.3315 1.17188 16.6533 1.17188 16.2158C1.17188 15.8581 1.57219 15.433 2.27016 15.0495C2.55379 14.8937 2.65738 14.5375 2.50156 14.2539C2.34574 13.9703 1.98961 13.8666 1.7059 14.0225C0.927695 14.45 0 15.1776 0 16.2158C0 17.0117 0.547344 18.1463 3.15477 19.0322C4.99195 19.6564 7.42297 20.0001 10 20.0001C12.577 20.0001 15.008 19.6564 16.8452 19.0322C19.4527 18.1463 20 17.0117 20 16.2158C20 15.1776 19.0723 14.45 18.2941 14.0225Z" fill="#E0E0E0"/>
<path d="M5.57625 17.0752C6.76571 17.4112 8.33676 17.5963 10 17.5963C11.6632 17.5963 13.2343 17.4113 14.4238 17.0752C15.879 16.6642 16.6168 16.0691 16.6168 15.3067C16.6168 14.5442 15.879 13.9492 14.4238 13.5382C14.1007 13.4469 13.7494 13.3669 13.3759 13.2986C13.173 13.6491 12.9605 14.0098 12.7383 14.3809C13.1517 14.443 13.5399 14.519 13.8924 14.6088C14.9633 14.8816 15.3545 15.1887 15.435 15.3067C15.3545 15.4248 14.9633 15.7319 13.8924 16.0046C12.8788 16.2628 11.5746 16.41 10.2011 16.4232C10.1345 16.4281 10.0675 16.4309 10 16.4309C9.93247 16.4309 9.86547 16.4281 9.79891 16.4232C8.42536 16.41 7.12121 16.2628 6.10758 16.0046C5.03664 15.7319 4.64543 15.4248 4.565 15.3067C4.64543 15.1887 5.03668 14.8816 6.10762 14.6088C6.46012 14.5191 6.84828 14.443 7.26176 14.3809C7.03953 14.0098 6.82699 13.649 6.62414 13.2986C6.25063 13.3669 5.89926 13.4469 5.57625 13.5382C4.12105 13.9492 3.3832 14.5442 3.3832 15.3067C3.3832 16.0691 4.12105 16.6641 5.57625 17.0752Z" fill="#E0E0E0"/>
<path d="M10 15.2591C10.5216 15.2591 10.9954 14.9934 11.2675 14.5482C13.1741 11.4288 15.4469 7.31758 15.4469 5.44684C15.4469 2.44344 13.0034 0 10 0C6.99656 0 4.55312 2.44344 4.55312 5.44684C4.55312 7.31758 6.8259 11.4288 8.7325 14.5482C9.00461 14.9934 9.47844 15.2591 10 15.2591ZM7.81066 5.07285C7.81066 3.8657 8.79281 2.88359 10 2.88359C11.2072 2.88359 12.1893 3.8657 12.1893 5.07285C12.1893 6.28004 11.2072 7.26215 10 7.26215C8.79281 7.26215 7.81066 6.28008 7.81066 5.07285Z" fill="#E0E0E0"/>
</svg>
