<svg width="20" height="20" viewBox="0 0 20 20" fill="none" xmlns="http://www.w3.org/2000/svg">
<path d="M8.54401 9.81155C8.35358 9.53064 8.24219 9.1922 8.24219 8.82812C8.24219 7.85889 9.03076 7.07031 10 7.07031C10.9692 7.07031 11.7578 7.85889 11.7578 8.82812C11.7578 9.1922 11.6464 9.53064 11.456 9.81155C11.795 10.0069 12.0978 10.2625 12.3363 10.5769C12.7039 10.0873 12.9297 9.48608 12.9297 8.82812C12.9297 7.21283 11.6153 5.89844 10 5.89844C8.3847 5.89844 7.07031 7.21283 7.07031 8.82812C7.07031 9.48608 7.29614 10.0873 7.66373 10.5769C7.90222 10.2625 8.20496 10.0069 8.54401 9.81155Z" fill="#E0E0E0"/>
<path d="M10 10.5859C9.40994 10.5859 8.87878 10.8893 8.55621 11.3617C8.98422 11.6068 9.47266 11.7578 10 11.7578C10.5273 11.7578 11.0158 11.6068 11.4438 11.3617C11.1212 10.8893 10.5901 10.5859 10 10.5859Z" fill="#E0E0E0"/>
<path d="M10.5859 8.82812C10.5859 8.50479 10.3233 8.24219 10 8.24219C9.67667 8.24219 9.41406 8.50479 9.41406 8.82812C9.41406 9.15146 9.67667 9.41406 10 9.41406C10.3233 9.41406 10.5859 9.15146 10.5859 8.82812Z" fill="#E0E0E0"/>
<path d="M3.55469 18.2422C3.55469 19.2114 4.34326 20 5.3125 20H14.6875C15.6567 20 16.4453 19.2114 16.4453 18.2422V17.6562H3.55469V18.2422Z" fill="#E0E0E0"/>
<path d="M14.6875 0H5.3125C4.34326 0 3.55469 0.788574 3.55469 1.75781V2.34375H16.4453V1.75781C16.4453 0.788574 15.6567 0 14.6875 0Z" fill="#E0E0E0"/>
<path d="M3.55469 16.4844H16.4453V3.51562H3.55469V16.4844ZM7.65625 15.2734C7.33261 15.2734 7.07031 15.0111 7.07031 14.6875C7.07031 14.3639 7.33261 14.1016 7.65625 14.1016C7.97989 14.1016 8.24219 14.3639 8.24219 14.6875C8.24219 15.0111 7.97989 15.2734 7.65625 15.2734ZM10 15.2734C9.67636 15.2734 9.41406 15.0111 9.41406 14.6875C9.41406 14.3639 9.67636 14.1016 10 14.1016C10.3236 14.1016 10.5859 14.3639 10.5859 14.6875C10.5859 15.0111 10.3236 15.2734 10 15.2734ZM12.3438 15.2734C12.0201 15.2734 11.7578 15.0111 11.7578 14.6875C11.7578 14.3639 12.0201 14.1016 12.3438 14.1016C12.6674 14.1016 12.9297 14.3639 12.9297 14.6875C12.9297 15.0111 12.6674 15.2734 12.3438 15.2734ZM10 4.72656C12.2614 4.72656 14.1016 6.56677 14.1016 8.82812C14.1016 11.0966 12.1921 12.9297 10 12.9297C7.7916 12.9297 5.89844 11.0849 5.89844 8.82812C5.89844 6.56677 7.73865 4.72656 10 4.72656Z" fill="#E0E0E0"/>
</svg>
